<svg xmlns="http://www.w3.org/2000/svg" viewBox="0 0 1200 850" width="1200" height="850">
  <!-- Background -->
  <rect width="1200" height="850" fill="#FAFAF8" rx="0"/>

  <!-- HEADER BAND -->
  <rect x="0" y="0" width="1200" height="80" fill="#FFFBEB" rx="0"/>
  <text x="600" y="36" text-anchor="middle" font-family="Inter, Segoe UI, sans-serif" font-size="28" font-weight="800" fill="#B45309">Layer 3: Craft</text>
  <text x="600" y="60" text-anchor="middle" font-family="Inter, Segoe UI, sans-serif" font-size="14" fill="#5F6B7A">Comprehensive  ·  8 Generators, Each Pre-Tested by Layers 1 + 2</text>

  <!-- ============ ROW 1 ============ -->

  <!-- CARD 1: ai-prd -->
  <rect x="53" y="103" width="260" height="230" rx="12" fill="#D1D5DB" opacity="0.35"/>
  <rect x="50" y="100" width="260" height="230" rx="12" fill="#FFFFFF" stroke="#E5E7EB" stroke-width="1.2"/>
  <rect x="50" y="100" width="260" height="44" rx="12" fill="#F59E0B"/>
  <rect x="50" y="132" width="260" height="12" fill="#F59E0B"/>
  <text x="180" y="128" text-anchor="middle" font-family="Inter, Segoe UI, sans-serif" font-size="15" font-weight="700" fill="#FFFFFF">ai-prd</text>
  <text x="66" y="168" font-family="Inter, Segoe UI, sans-serif" font-size="11" font-weight="700" fill="#9CA3AF">Produces:</text>
  <text x="66" y="186" font-family="Inter, Segoe UI, sans-serif" font-size="13" fill="#5F6B7A">PRD with eval gates and</text>
  <text x="66" y="202" font-family="Inter, Segoe UI, sans-serif" font-size="13" fill="#5F6B7A">failure budgets</text>
  <text x="66" y="226" font-family="Inter, Segoe UI, sans-serif" font-size="11" font-weight="700" fill="#9CA3AF">Imports from:</text>
  <!-- Purple chips (Thinking) -->
  <rect x="66" y="238" width="100" height="22" rx="11" fill="#EDE9FE" stroke="#C4B5FD" stroke-width="1"/>
  <text x="116" y="253" text-anchor="middle" font-family="Inter, Segoe UI, sans-serif" font-size="10" font-weight="600" fill="#6D28D9">first-principles</text>
  <rect x="172" y="238" width="84" height="22" rx="11" fill="#EDE9FE" stroke="#C4B5FD" stroke-width="1"/>
  <text x="214" y="253" text-anchor="middle" font-family="Inter, Segoe UI, sans-serif" font-size="10" font-weight="600" fill="#6D28D9">bias-spotter</text>
  <!-- Teal chips (Judgment) -->
  <rect x="66" y="266" width="88" height="22" rx="11" fill="#CCFBF1" stroke="#5EEAD4" stroke-width="1"/>
  <text x="110" y="281" text-anchor="middle" font-family="Inter, Segoe UI, sans-serif" font-size="10" font-weight="600" fill="#0F766E">build-or-buy</text>
  <rect x="160" y="266" width="110" height="22" rx="11" fill="#CCFBF1" stroke="#5EEAD4" stroke-width="1"/>
  <text x="215" y="281" text-anchor="middle" font-family="Inter, Segoe UI, sans-serif" font-size="10" font-weight="600" fill="#0F766E">token-economics</text>

  <!-- CARD 2: context-spec -->
  <rect x="333" y="103" width="260" height="230" rx="12" fill="#D1D5DB" opacity="0.35"/>
  <rect x="330" y="100" width="260" height="230" rx="12" fill="#FFFFFF" stroke="#E5E7EB" stroke-width="1.2"/>
  <rect x="330" y="100" width="260" height="44" rx="12" fill="#F59E0B"/>
  <rect x="330" y="132" width="260" height="12" fill="#F59E0B"/>
  <text x="460" y="128" text-anchor="middle" font-family="Inter, Segoe UI, sans-serif" font-size="15" font-weight="700" fill="#FFFFFF">context-spec</text>
  <text x="346" y="168" font-family="Inter, Segoe UI, sans-serif" font-size="11" font-weight="700" fill="#9CA3AF">Produces:</text>
  <text x="346" y="186" font-family="Inter, Segoe UI, sans-serif" font-size="13" fill="#5F6B7A">Context architecture</text>
  <text x="346" y="202" font-family="Inter, Segoe UI, sans-serif" font-size="13" fill="#5F6B7A">blueprint</text>
  <text x="346" y="226" font-family="Inter, Segoe UI, sans-serif" font-size="11" font-weight="700" fill="#9CA3AF">Imports from:</text>
  <!-- Purple chips -->
  <rect x="346" y="238" width="100" height="22" rx="11" fill="#EDE9FE" stroke="#C4B5FD" stroke-width="1"/>
  <text x="396" y="253" text-anchor="middle" font-family="Inter, Segoe UI, sans-serif" font-size="10" font-weight="600" fill="#6D28D9">first-principles</text>
  <rect x="452" y="238" width="120" height="22" rx="11" fill="#EDE9FE" stroke="#C4B5FD" stroke-width="1"/>
  <text x="512" y="253" text-anchor="middle" font-family="Inter, Segoe UI, sans-serif" font-size="10" font-weight="600" fill="#6D28D9">determinism-compass</text>
  <!-- Teal chips -->
  <rect x="346" y="266" width="100" height="22" rx="11" fill="#CCFBF1" stroke="#5EEAD4" stroke-width="1"/>
  <text x="396" y="281" text-anchor="middle" font-family="Inter, Segoe UI, sans-serif" font-size="10" font-weight="600" fill="#0F766E">signal-scanner</text>

  <!-- CARD 3: agent-spec -->
  <rect x="613" y="103" width="260" height="230" rx="12" fill="#D1D5DB" opacity="0.35"/>
  <rect x="610" y="100" width="260" height="230" rx="12" fill="#FFFFFF" stroke="#E5E7EB" stroke-width="1.2"/>
  <rect x="610" y="100" width="260" height="44" rx="12" fill="#F59E0B"/>
  <rect x="610" y="132" width="260" height="12" fill="#F59E0B"/>
  <text x="740" y="128" text-anchor="middle" font-family="Inter, Segoe UI, sans-serif" font-size="15" font-weight="700" fill="#FFFFFF">agent-spec</text>
  <text x="626" y="168" font-family="Inter, Segoe UI, sans-serif" font-size="11" font-weight="700" fill="#9CA3AF">Produces:</text>
  <text x="626" y="186" font-family="Inter, Segoe UI, sans-serif" font-size="13" fill="#5F6B7A">Agent boundary matrix with</text>
  <text x="626" y="202" font-family="Inter, Segoe UI, sans-serif" font-size="13" fill="#5F6B7A">autonomy levels</text>
  <text x="626" y="226" font-family="Inter, Segoe UI, sans-serif" font-size="11" font-weight="700" fill="#9CA3AF">Imports from:</text>
  <!-- Teal chips -->
  <rect x="626" y="238" width="118" height="22" rx="11" fill="#CCFBF1" stroke="#5EEAD4" stroke-width="1"/>
  <text x="685" y="253" text-anchor="middle" font-family="Inter, Segoe UI, sans-serif" font-size="10" font-weight="600" fill="#0F766E">autonomy-spectrum</text>
  <rect x="750" y="238" width="78" height="22" rx="11" fill="#CCFBF1" stroke="#5EEAD4" stroke-width="1"/>
  <text x="789" y="253" text-anchor="middle" font-family="Inter, Segoe UI, sans-serif" font-size="10" font-weight="600" fill="#0F766E">agent-risk</text>
  <rect x="626" y="266" width="84" height="22" rx="11" fill="#CCFBF1" stroke="#5EEAD4" stroke-width="1"/>
  <text x="668" y="281" text-anchor="middle" font-family="Inter, Segoe UI, sans-serif" font-size="10" font-weight="600" fill="#0F766E">trust-ladder</text>

  <!-- CARD 4: cost-model -->
  <rect x="893" y="103" width="260" height="230" rx="12" fill="#D1D5DB" opacity="0.35"/>
  <rect x="890" y="100" width="260" height="230" rx="12" fill="#FFFFFF" stroke="#E5E7EB" stroke-width="1.2"/>
  <rect x="890" y="100" width="260" height="44" rx="12" fill="#F59E0B"/>
  <rect x="890" y="132" width="260" height="12" fill="#F59E0B"/>
  <text x="1020" y="128" text-anchor="middle" font-family="Inter, Segoe UI, sans-serif" font-size="15" font-weight="700" fill="#FFFFFF">cost-model</text>
  <text x="906" y="168" font-family="Inter, Segoe UI, sans-serif" font-size="11" font-weight="700" fill="#9CA3AF">Produces:</text>
  <text x="906" y="186" font-family="Inter, Segoe UI, sans-serif" font-size="13" fill="#5F6B7A">Token cost at scale + path</text>
  <text x="906" y="202" font-family="Inter, Segoe UI, sans-serif" font-size="13" fill="#5F6B7A">to profitability</text>
  <text x="906" y="226" font-family="Inter, Segoe UI, sans-serif" font-size="11" font-weight="700" fill="#9CA3AF">Imports from:</text>
  <!-- Teal chips -->
  <rect x="906" y="238" width="110" height="22" rx="11" fill="#CCFBF1" stroke="#5EEAD4" stroke-width="1"/>
  <text x="961" y="253" text-anchor="middle" font-family="Inter, Segoe UI, sans-serif" font-size="10" font-weight="600" fill="#0F766E">token-economics</text>
  <rect x="1022" y="238" width="88" height="22" rx="11" fill="#CCFBF1" stroke="#5EEAD4" stroke-width="1"/>
  <text x="1066" y="253" text-anchor="middle" font-family="Inter, Segoe UI, sans-serif" font-size="10" font-weight="600" fill="#0F766E">build-or-buy</text>

  <!-- ============ ROW 2 ============ -->

  <!-- CARD 5: ship-decision -->
  <rect x="53" y="363" width="260" height="230" rx="12" fill="#D1D5DB" opacity="0.35"/>
  <rect x="50" y="360" width="260" height="230" rx="12" fill="#FFFFFF" stroke="#E5E7EB" stroke-width="1.2"/>
  <rect x="50" y="360" width="260" height="44" rx="12" fill="#F59E0B"/>
  <rect x="50" y="392" width="260" height="12" fill="#F59E0B"/>
  <text x="180" y="388" text-anchor="middle" font-family="Inter, Segoe UI, sans-serif" font-size="15" font-weight="700" fill="#FFFFFF">ship-decision</text>
  <text x="66" y="428" font-family="Inter, Segoe UI, sans-serif" font-size="11" font-weight="700" fill="#9CA3AF">Produces:</text>
  <text x="66" y="446" font-family="Inter, Segoe UI, sans-serif" font-size="13" fill="#5F6B7A">Eval-gated ship/no-ship</text>
  <text x="66" y="462" font-family="Inter, Segoe UI, sans-serif" font-size="13" fill="#5F6B7A">decision</text>
  <text x="66" y="486" font-family="Inter, Segoe UI, sans-serif" font-size="11" font-weight="700" fill="#9CA3AF">Imports from:</text>
  <!-- Purple chips -->
  <rect x="66" y="498" width="76" height="22" rx="11" fill="#EDE9FE" stroke="#C4B5FD" stroke-width="1"/>
  <text x="104" y="513" text-anchor="middle" font-family="Inter, Segoe UI, sans-serif" font-size="10" font-weight="600" fill="#6D28D9">stress-test</text>
  <rect x="148" y="498" width="94" height="22" rx="11" fill="#EDE9FE" stroke="#C4B5FD" stroke-width="1"/>
  <text x="195" y="513" text-anchor="middle" font-family="Inter, Segoe UI, sans-serif" font-size="10" font-weight="600" fill="#6D28D9">failure-modes</text>
  <!-- Teal chips -->
  <rect x="66" y="526" width="104" height="22" rx="11" fill="#CCFBF1" stroke="#5EEAD4" stroke-width="1"/>
  <text x="118" y="541" text-anchor="middle" font-family="Inter, Segoe UI, sans-serif" font-size="10" font-weight="600" fill="#0F766E">eval-driven-dev</text>

  <!-- CARD 6: competitive-map -->
  <rect x="333" y="363" width="260" height="230" rx="12" fill="#D1D5DB" opacity="0.35"/>
  <rect x="330" y="360" width="260" height="230" rx="12" fill="#FFFFFF" stroke="#E5E7EB" stroke-width="1.2"/>
  <rect x="330" y="360" width="260" height="44" rx="12" fill="#F59E0B"/>
  <rect x="330" y="392" width="260" height="12" fill="#F59E0B"/>
  <text x="460" y="388" text-anchor="middle" font-family="Inter, Segoe UI, sans-serif" font-size="15" font-weight="700" fill="#FFFFFF">competitive-map</text>
  <text x="346" y="428" font-family="Inter, Segoe UI, sans-serif" font-size="11" font-weight="700" fill="#9CA3AF">Produces:</text>
  <text x="346" y="446" font-family="Inter, Segoe UI, sans-serif" font-size="13" fill="#5F6B7A">Competitive landscape for</text>
  <text x="346" y="462" font-family="Inter, Segoe UI, sans-serif" font-size="13" fill="#5F6B7A">AI features</text>
  <text x="346" y="486" font-family="Inter, Segoe UI, sans-serif" font-size="11" font-weight="700" fill="#9CA3AF">Imports from:</text>
  <!-- Teal chips -->
  <rect x="346" y="498" width="100" height="22" rx="11" fill="#CCFBF1" stroke="#5EEAD4" stroke-width="1"/>
  <text x="396" y="513" text-anchor="middle" font-family="Inter, Segoe UI, sans-serif" font-size="10" font-weight="600" fill="#0F766E">signal-scanner</text>
  <rect x="452" y="498" width="116" height="22" rx="11" fill="#CCFBF1" stroke="#5EEAD4" stroke-width="1"/>
  <text x="510" y="513" text-anchor="middle" font-family="Inter, Segoe UI, sans-serif" font-size="10" font-weight="600" fill="#0F766E">competitive-moat</text>

  <!-- CARD 7: fit-signal -->
  <rect x="613" y="363" width="260" height="230" rx="12" fill="#D1D5DB" opacity="0.35"/>
  <rect x="610" y="360" width="260" height="230" rx="12" fill="#FFFFFF" stroke="#E5E7EB" stroke-width="1.2"/>
  <rect x="610" y="360" width="260" height="44" rx="12" fill="#F59E0B"/>
  <rect x="610" y="392" width="260" height="12" fill="#F59E0B"/>
  <text x="740" y="388" text-anchor="middle" font-family="Inter, Segoe UI, sans-serif" font-size="15" font-weight="700" fill="#FFFFFF">fit-signal</text>
  <text x="626" y="428" font-family="Inter, Segoe UI, sans-serif" font-size="11" font-weight="700" fill="#9CA3AF">Produces:</text>
  <text x="626" y="446" font-family="Inter, Segoe UI, sans-serif" font-size="13" fill="#5F6B7A">PMF diagnosis for</text>
  <text x="626" y="462" font-family="Inter, Segoe UI, sans-serif" font-size="13" fill="#5F6B7A">probabilistic products</text>
  <text x="626" y="486" font-family="Inter, Segoe UI, sans-serif" font-size="11" font-weight="700" fill="#9CA3AF">Imports from:</text>
  <!-- Teal chips -->
  <rect x="626" y="498" width="118" height="22" rx="11" fill="#CCFBF1" stroke="#5EEAD4" stroke-width="1"/>
  <text x="685" y="513" text-anchor="middle" font-family="Inter, Segoe UI, sans-serif" font-size="10" font-weight="600" fill="#0F766E">ai-product-metrics</text>
  <rect x="750" y="498" width="108" height="22" rx="11" fill="#CCFBF1" stroke="#5EEAD4" stroke-width="1"/>
  <text x="804" y="513" text-anchor="middle" font-family="Inter, Segoe UI, sans-serif" font-size="10" font-weight="600" fill="#0F766E">adoption-launch</text>
  <!-- Purple chip -->
  <rect x="626" y="526" width="76" height="22" rx="11" fill="#EDE9FE" stroke="#C4B5FD" stroke-width="1"/>
  <text x="664" y="541" text-anchor="middle" font-family="Inter, Segoe UI, sans-serif" font-size="10" font-weight="600" fill="#6D28D9">stress-test</text>

  <!-- CARD 8: prompt-as-product -->
  <rect x="893" y="363" width="260" height="230" rx="12" fill="#D1D5DB" opacity="0.35"/>
  <rect x="890" y="360" width="260" height="230" rx="12" fill="#FFFFFF" stroke="#E5E7EB" stroke-width="1.2"/>
  <rect x="890" y="360" width="260" height="44" rx="12" fill="#F59E0B"/>
  <rect x="890" y="392" width="260" height="12" fill="#F59E0B"/>
  <text x="1020" y="388" text-anchor="middle" font-family="Inter, Segoe UI, sans-serif" font-size="15" font-weight="700" fill="#FFFFFF">prompt-as-product</text>
  <text x="906" y="428" font-family="Inter, Segoe UI, sans-serif" font-size="11" font-weight="700" fill="#9CA3AF">Produces:</text>
  <text x="906" y="446" font-family="Inter, Segoe UI, sans-serif" font-size="13" fill="#5F6B7A">Prompt versioning with</text>
  <text x="906" y="462" font-family="Inter, Segoe UI, sans-serif" font-size="13" fill="#5F6B7A">regression testing</text>
  <text x="906" y="486" font-family="Inter, Segoe UI, sans-serif" font-size="11" font-weight="700" fill="#9CA3AF">Imports from:</text>
  <!-- Purple chip -->
  <rect x="906" y="498" width="100" height="22" rx="11" fill="#EDE9FE" stroke="#C4B5FD" stroke-width="1"/>
  <text x="956" y="513" text-anchor="middle" font-family="Inter, Segoe UI, sans-serif" font-size="10" font-weight="600" fill="#6D28D9">first-principles</text>
  <!-- Teal chip -->
  <rect x="1012" y="498" width="84" height="22" rx="11" fill="#CCFBF1" stroke="#5EEAD4" stroke-width="1"/>
  <text x="1054" y="513" text-anchor="middle" font-family="Inter, Segoe UI, sans-serif" font-size="10" font-weight="600" fill="#0F766E">eval-design</text>

  <!-- ============ CALLOUT BOX ============ -->
  <rect x="100" y="620" width="1000" height="70" rx="14" fill="#FFFBEB" stroke="#FCD34D" stroke-width="1.5"/>
  <text x="600" y="650" text-anchor="middle" font-family="Inter, Segoe UI, sans-serif" font-size="15" font-weight="700" fill="#B45309">None of these skills start by asking 'what do you need?'</text>
  <text x="600" y="672" text-anchor="middle" font-family="Inter, Segoe UI, sans-serif" font-size="13" fill="#5F6B7A">They start by running Layers 1 and 2. Every output arrives pre-tested.</text>

  <!-- ============ FOOTER ============ -->
  <text x="600" y="730" text-anchor="middle" font-family="Inter, Segoe UI, sans-serif" font-size="12" fill="#9CA3AF">Layer 3  ·  Craft  ·  8 Generators  ·  April 2026</text>
</svg>