<svg xmlns="http://www.w3.org/2000/svg" viewBox="0 0 1200 560" width="1200" height="560">
  <!-- Background -->
  <rect x="0" y="0" width="1200" height="560" fill="#FAFAF8"/>

  <!-- Header band -->
  <rect x="0" y="0" width="1200" height="72" fill="#FFFBEB"/>
  <text x="40" y="38" font-family="Inter, Segoe UI, sans-serif" font-size="28" font-weight="bold" fill="#B45309">8 Generators the Architecture Won't Let You Skip</text>
  <text x="40" y="60" font-family="Inter, Segoe UI, sans-serif" font-size="14" fill="#5F6B7A">Comprehensive  ·  Layer 3: Craft</text>

  <!-- ========== ROW 1 ========== -->

  <!-- Card 1: AI PRD -->
  <rect x="22" y="92" width="260" height="170" rx="8" fill="#E8E5E0" opacity="0.45"/>
  <rect x="20" y="90" width="260" height="170" rx="8" fill="#FFFFFF" stroke="#E5E7EB" stroke-width="1"/>
  <rect x="20" y="90" width="260" height="34" rx="8" fill="#F59E0B"/>
  <rect x="20" y="108" width="260" height="16" fill="#F59E0B"/>
  <text x="32" y="113" font-family="Inter, Segoe UI, sans-serif" font-size="13" font-weight="bold" fill="#FFFFFF">AI PRD</text>
  <text x="32" y="146" font-family="Inter, Segoe UI, sans-serif" font-size="12" fill="#5F6B7A">Runs first-principles + bias check</text>
  <text x="32" y="162" font-family="Inter, Segoe UI, sans-serif" font-size="12" fill="#5F6B7A">+ cost model BEFORE writing spec</text>
  <!-- Chips -->
  <rect x="32" y="180" width="102" height="22" rx="5" fill="#EDE9FE" stroke="#C4B5FD" stroke-width="1"/>
  <text x="42" y="195" font-family="Inter, Segoe UI, sans-serif" font-size="11" fill="#6D28D9">first-principles</text>
  <rect x="142" y="180" width="96" height="22" rx="5" fill="#CCFBF1" stroke="#5EEAD4" stroke-width="1"/>
  <text x="152" y="195" font-family="Inter, Segoe UI, sans-serif" font-size="11" fill="#0F766E">build-or-buy</text>

  <!-- Card 2: Context Spec -->
  <rect x="312" y="92" width="260" height="170" rx="8" fill="#E8E5E0" opacity="0.45"/>
  <rect x="310" y="90" width="260" height="170" rx="8" fill="#FFFFFF" stroke="#E5E7EB" stroke-width="1"/>
  <rect x="310" y="90" width="260" height="34" rx="8" fill="#F59E0B"/>
  <rect x="310" y="108" width="260" height="16" fill="#F59E0B"/>
  <text x="322" y="113" font-family="Inter, Segoe UI, sans-serif" font-size="13" font-weight="bold" fill="#FFFFFF">Context Spec</text>
  <text x="322" y="146" font-family="Inter, Segoe UI, sans-serif" font-size="12" fill="#5F6B7A">Context architecture blueprint for</text>
  <text x="322" y="162" font-family="Inter, Segoe UI, sans-serif" font-size="12" fill="#5F6B7A">LLM-powered features</text>
  <rect x="322" y="180" width="136" height="22" rx="5" fill="#EDE9FE" stroke="#C4B5FD" stroke-width="1"/>
  <text x="332" y="195" font-family="Inter, Segoe UI, sans-serif" font-size="11" fill="#6D28D9">determinism-compass</text>
  <rect x="466" y="180" width="96" height="22" rx="5" fill="#CCFBF1" stroke="#5EEAD4" stroke-width="1"/>
  <text x="476" y="195" font-family="Inter, Segoe UI, sans-serif" font-size="11" fill="#0F766E">signal-scanner</text>

  <!-- Card 3: Agent Spec -->
  <rect x="602" y="92" width="260" height="170" rx="8" fill="#E8E5E0" opacity="0.45"/>
  <rect x="600" y="90" width="260" height="170" rx="8" fill="#FFFFFF" stroke="#E5E7EB" stroke-width="1"/>
  <rect x="600" y="90" width="260" height="34" rx="8" fill="#F59E0B"/>
  <rect x="600" y="108" width="260" height="16" fill="#F59E0B"/>
  <text x="612" y="113" font-family="Inter, Segoe UI, sans-serif" font-size="13" font-weight="bold" fill="#FFFFFF">Agent Spec</text>
  <text x="612" y="146" font-family="Inter, Segoe UI, sans-serif" font-size="12" fill="#5F6B7A">Agent boundary matrix with</text>
  <text x="612" y="162" font-family="Inter, Segoe UI, sans-serif" font-size="12" fill="#5F6B7A">justified autonomy levels</text>
  <rect x="612" y="180" width="132" height="22" rx="5" fill="#CCFBF1" stroke="#5EEAD4" stroke-width="1"/>
  <text x="622" y="195" font-family="Inter, Segoe UI, sans-serif" font-size="11" fill="#0F766E">autonomy-spectrum</text>
  <rect x="752" y="180" width="90" height="22" rx="5" fill="#CCFBF1" stroke="#5EEAD4" stroke-width="1"/>
  <text x="762" y="195" font-family="Inter, Segoe UI, sans-serif" font-size="11" fill="#0F766E">trust-ladder</text>

  <!-- Card 4: Cost Model -->
  <rect x="892" y="92" width="260" height="170" rx="8" fill="#E8E5E0" opacity="0.45"/>
  <rect x="890" y="90" width="260" height="170" rx="8" fill="#FFFFFF" stroke="#E5E7EB" stroke-width="1"/>
  <rect x="890" y="90" width="260" height="34" rx="8" fill="#F59E0B"/>
  <rect x="890" y="108" width="260" height="16" fill="#F59E0B"/>
  <text x="902" y="113" font-family="Inter, Segoe UI, sans-serif" font-size="13" font-weight="bold" fill="#FFFFFF">Cost Model</text>
  <text x="902" y="146" font-family="Inter, Segoe UI, sans-serif" font-size="12" fill="#5F6B7A">Token cost at 3 scales + path</text>
  <text x="902" y="162" font-family="Inter, Segoe UI, sans-serif" font-size="12" fill="#5F6B7A">to profitability</text>
  <rect x="902" y="180" width="120" height="22" rx="5" fill="#CCFBF1" stroke="#5EEAD4" stroke-width="1"/>
  <text x="912" y="195" font-family="Inter, Segoe UI, sans-serif" font-size="11" fill="#0F766E">token-economics</text>
  <rect x="1030" y="180" width="96" height="22" rx="5" fill="#CCFBF1" stroke="#5EEAD4" stroke-width="1"/>
  <text x="1040" y="195" font-family="Inter, Segoe UI, sans-serif" font-size="11" fill="#0F766E">build-or-buy</text>

  <!-- ========== ROW 2 ========== -->

  <!-- Card 5: Ship Decision -->
  <rect x="22" y="282" width="260" height="170" rx="8" fill="#E8E5E0" opacity="0.45"/>
  <rect x="20" y="280" width="260" height="170" rx="8" fill="#FFFFFF" stroke="#E5E7EB" stroke-width="1"/>
  <rect x="20" y="280" width="260" height="34" rx="8" fill="#F59E0B"/>
  <rect x="20" y="298" width="260" height="16" fill="#F59E0B"/>
  <text x="32" y="303" font-family="Inter, Segoe UI, sans-serif" font-size="13" font-weight="bold" fill="#FFFFFF">Ship Decision</text>
  <text x="32" y="336" font-family="Inter, Segoe UI, sans-serif" font-size="12" fill="#5F6B7A">Eval-gated ship/no-ship with</text>
  <text x="32" y="352" font-family="Inter, Segoe UI, sans-serif" font-size="12" fill="#5F6B7A">named assumptions</text>
  <rect x="32" y="370" width="82" height="22" rx="5" fill="#EDE9FE" stroke="#C4B5FD" stroke-width="1"/>
  <text x="42" y="385" font-family="Inter, Segoe UI, sans-serif" font-size="11" fill="#6D28D9">stress-test</text>
  <rect x="122" y="370" width="112" height="22" rx="5" fill="#CCFBF1" stroke="#5EEAD4" stroke-width="1"/>
  <text x="132" y="385" font-family="Inter, Segoe UI, sans-serif" font-size="11" fill="#0F766E">eval-framework</text>

  <!-- Card 6: Competitive Map -->
  <rect x="312" y="282" width="260" height="170" rx="8" fill="#E8E5E0" opacity="0.45"/>
  <rect x="310" y="280" width="260" height="170" rx="8" fill="#FFFFFF" stroke="#E5E7EB" stroke-width="1"/>
  <rect x="310" y="280" width="260" height="34" rx="8" fill="#F59E0B"/>
  <rect x="310" y="298" width="260" height="16" fill="#F59E0B"/>
  <text x="322" y="303" font-family="Inter, Segoe UI, sans-serif" font-size="13" font-weight="bold" fill="#FFFFFF">Competitive Map</text>
  <text x="322" y="336" font-family="Inter, Segoe UI, sans-serif" font-size="12" fill="#5F6B7A">Landscape analysis for AI features,</text>
  <text x="322" y="352" font-family="Inter, Segoe UI, sans-serif" font-size="12" fill="#5F6B7A">not generic products</text>
  <rect x="322" y="370" width="106" height="22" rx="5" fill="#CCFBF1" stroke="#5EEAD4" stroke-width="1"/>
  <text x="332" y="385" font-family="Inter, Segoe UI, sans-serif" font-size="11" fill="#0F766E">signal-scanner</text>
  <rect x="436" y="370" width="96" height="22" rx="5" fill="#CCFBF1" stroke="#5EEAD4" stroke-width="1"/>
  <text x="446" y="385" font-family="Inter, Segoe UI, sans-serif" font-size="11" fill="#0F766E">moat-finder</text>

  <!-- Card 7: Fit Signal -->
  <rect x="602" y="282" width="260" height="170" rx="8" fill="#E8E5E0" opacity="0.45"/>
  <rect x="600" y="280" width="260" height="170" rx="8" fill="#FFFFFF" stroke="#E5E7EB" stroke-width="1"/>
  <rect x="600" y="280" width="260" height="34" rx="8" fill="#F59E0B"/>
  <rect x="600" y="298" width="260" height="16" fill="#F59E0B"/>
  <text x="612" y="303" font-family="Inter, Segoe UI, sans-serif" font-size="13" font-weight="bold" fill="#FFFFFF">Fit Signal</text>
  <text x="612" y="336" font-family="Inter, Segoe UI, sans-serif" font-size="12" fill="#5F6B7A">Product-market fit diagnosis for</text>
  <text x="612" y="352" font-family="Inter, Segoe UI, sans-serif" font-size="12" fill="#5F6B7A">probabilistic products</text>
  <rect x="612" y="370" width="82" height="22" rx="5" fill="#CCFBF1" stroke="#5EEAD4" stroke-width="1"/>
  <text x="622" y="385" font-family="Inter, Segoe UI, sans-serif" font-size="11" fill="#0F766E">AI-metrics</text>
  <rect x="702" y="370" width="112" height="22" rx="5" fill="#CCFBF1" stroke="#5EEAD4" stroke-width="1"/>
  <text x="712" y="385" font-family="Inter, Segoe UI, sans-serif" font-size="11" fill="#0F766E">adoption-launch</text>

  <!-- Card 8: Prompt as Product -->
  <rect x="892" y="282" width="260" height="170" rx="8" fill="#E8E5E0" opacity="0.45"/>
  <rect x="890" y="280" width="260" height="170" rx="8" fill="#FFFFFF" stroke="#E5E7EB" stroke-width="1"/>
  <rect x="890" y="280" width="260" height="34" rx="8" fill="#F59E0B"/>
  <rect x="890" y="298" width="260" height="16" fill="#F59E0B"/>
  <text x="902" y="303" font-family="Inter, Segoe UI, sans-serif" font-size="13" font-weight="bold" fill="#FFFFFF">Prompt as Product</text>
  <text x="902" y="336" font-family="Inter, Segoe UI, sans-serif" font-size="12" fill="#5F6B7A">Prompt versioning with regression</text>
  <text x="902" y="352" font-family="Inter, Segoe UI, sans-serif" font-size="12" fill="#5F6B7A">testing</text>
  <rect x="902" y="370" width="102" height="22" rx="5" fill="#EDE9FE" stroke="#C4B5FD" stroke-width="1"/>
  <text x="912" y="385" font-family="Inter, Segoe UI, sans-serif" font-size="11" fill="#6D28D9">first-principles</text>
  <rect x="1012" y="370" width="112" height="22" rx="5" fill="#CCFBF1" stroke="#5EEAD4" stroke-width="1"/>
  <text x="1022" y="385" font-family="Inter, Segoe UI, sans-serif" font-size="11" fill="#0F766E">eval-framework</text>

  <!-- Callout box -->
  <rect x="42" y="476" width="1116" height="50" rx="8" fill="#E8E5E0" opacity="0.35"/>
  <rect x="40" y="474" width="1116" height="50" rx="8" fill="#FFFBEB" stroke="#FCD34D" stroke-width="1.5"/>
  <text x="60" y="504" font-family="Inter, Segoe UI, sans-serif" font-size="13" font-weight="bold" fill="#B45309">The best review is one that happened before the first draft was written.</text>

  <!-- Footer -->
  <text x="600" y="546" font-family="Inter, Segoe UI, sans-serif" font-size="12" fill="#9CA3AF" text-anchor="middle">Layer 3  ·  Craft  ·  8 Generators  ·  April 2026</text>
</svg>