<svg xmlns="http://www.w3.org/2000/svg" viewBox="0 0 1200 590" width="1200" height="590">
  <!-- Background -->
  <rect x="0" y="0" width="1200" height="590" fill="#FAFAF8"/>

  <!-- Header band — premium amber with warmth gradient feel -->
  <rect x="0" y="0" width="1200" height="76" rx="0" fill="#FDF6E3"/>
  <rect x="0" y="74" width="1200" height="2" fill="#E8C76A" opacity="0.5"/>
  <text x="40" y="40" font-family="Inter, Segoe UI, sans-serif" font-size="26" font-weight="bold" fill="#92400E">8 Generators the Architecture Won't Let You Skip</text>
  <text x="40" y="62" font-family="Inter, Segoe UI, sans-serif" font-size="13" fill="#4B5563" letter-spacing="0.5">LAYER 3  ·  CRAFT  ·  THE FINAL OUTPUT</text>
  <!-- Chip legend in header — right-aligned -->
  <circle cx="906" cy="52" r="5" fill="#EDE9FE" stroke="#B4A2F5" stroke-width="0.8"/>
  <text x="916" y="56" font-family="Inter, Segoe UI, sans-serif" font-size="11" fill="#6B7280">thinking dependency</text>
  <circle cx="1048" cy="52" r="5" fill="#CCFBF1" stroke="#4DD8C0" stroke-width="0.8"/>
  <text x="1058" y="56" font-family="Inter, Segoe UI, sans-serif" font-size="11" fill="#6B7280">judgment dependency</text>

  <!-- ========== ROW 1 — 4 cards, golden-amber (warmer) ========== -->

  <!-- Card 1: AI PRD -->
  <rect x="22" y="100" width="270" height="186" rx="10" fill="#F2D9B8" opacity="0.28"/>
  <rect x="20" y="98" width="270" height="186" rx="10" fill="#FFFFFF" stroke="#E8D0B0" stroke-width="1"/>
  <rect x="20" y="98" width="270" height="36" rx="10" fill="#F59E0B"/>
  <rect x="20" y="118" width="270" height="16" fill="#F59E0B"/>
  <text x="34" y="122" font-family="Inter, Segoe UI, sans-serif" font-size="14" font-weight="bold" fill="#FFFFFF">AI PRD</text>
  <!-- Description — pushed to y+60 -->
  <text x="34" y="158" font-family="Inter, Segoe UI, sans-serif" font-size="12" fill="#4B5563">Runs first-principles + bias check</text>
  <text x="34" y="174" font-family="Inter, Segoe UI, sans-serif" font-size="12" fill="#4B5563">+ cost model BEFORE writing spec</text>
  <!-- Dotted connector lines from chips to description -->
  <line x1="96" y1="184" x2="96" y2="194" stroke="#B4A2F5" stroke-width="1" stroke-dasharray="2,2"/>
  <line x1="219" y1="184" x2="219" y2="194" stroke="#4DD8C0" stroke-width="1" stroke-dasharray="2,2"/>
  <!-- Dependency chips -->
  <rect x="34" y="194" width="124" height="24" rx="6" fill="#EDE9FE" stroke="#B4A2F5" stroke-width="1.2"/>
  <text x="46" y="210" font-family="Inter, Segoe UI, sans-serif" font-size="11" font-weight="500" fill="#5B21B6">first-principles</text>
  <rect x="166" y="194" width="106" height="24" rx="6" fill="#CCFBF1" stroke="#4DD8C0" stroke-width="1.2"/>
  <text x="178" y="210" font-family="Inter, Segoe UI, sans-serif" font-size="11" font-weight="500" fill="#0E6E63">build-or-buy</text>

  <!-- Card 2: Context Spec -->
  <rect x="316" y="100" width="270" height="186" rx="10" fill="#F2D9B8" opacity="0.28"/>
  <rect x="314" y="98" width="270" height="186" rx="10" fill="#FFFFFF" stroke="#E8D0B0" stroke-width="1"/>
  <rect x="314" y="98" width="270" height="36" rx="10" fill="#EAB308"/>
  <rect x="314" y="118" width="270" height="16" fill="#EAB308"/>
  <text x="328" y="122" font-family="Inter, Segoe UI, sans-serif" font-size="14" font-weight="bold" fill="#FFFFFF">Context Spec</text>
  <text x="328" y="158" font-family="Inter, Segoe UI, sans-serif" font-size="12" fill="#4B5563">Context architecture blueprint for</text>
  <text x="328" y="174" font-family="Inter, Segoe UI, sans-serif" font-size="12" fill="#4B5563">LLM-powered features</text>
  <line x1="399" y1="184" x2="399" y2="194" stroke="#B4A2F5" stroke-width="1" stroke-dasharray="2,2"/>
  <line x1="535" y1="184" x2="535" y2="194" stroke="#4DD8C0" stroke-width="1" stroke-dasharray="2,2"/>
  <rect x="328" y="194" width="142" height="24" rx="6" fill="#EDE9FE" stroke="#B4A2F5" stroke-width="1.2"/>
  <text x="340" y="210" font-family="Inter, Segoe UI, sans-serif" font-size="11" font-weight="500" fill="#5B21B6">determinism-compass</text>
  <rect x="478" y="194" width="114" height="24" rx="6" fill="#CCFBF1" stroke="#4DD8C0" stroke-width="1.2"/>
  <text x="490" y="210" font-family="Inter, Segoe UI, sans-serif" font-size="11" font-weight="500" fill="#0E6E63">signal-scanner</text>

  <!-- Card 3: Agent Spec -->
  <rect x="610" y="100" width="270" height="186" rx="10" fill="#F2D9B8" opacity="0.28"/>
  <rect x="608" y="98" width="270" height="186" rx="10" fill="#FFFFFF" stroke="#E8D0B0" stroke-width="1"/>
  <rect x="608" y="98" width="270" height="36" rx="10" fill="#F5A623"/>
  <rect x="608" y="118" width="270" height="16" fill="#F5A623"/>
  <text x="622" y="122" font-family="Inter, Segoe UI, sans-serif" font-size="14" font-weight="bold" fill="#FFFFFF">Agent Spec</text>
  <text x="622" y="158" font-family="Inter, Segoe UI, sans-serif" font-size="12" fill="#4B5563">Agent boundary matrix with</text>
  <text x="622" y="174" font-family="Inter, Segoe UI, sans-serif" font-size="12" fill="#4B5563">justified autonomy levels</text>
  <line x1="692" y1="184" x2="692" y2="194" stroke="#4DD8C0" stroke-width="1" stroke-dasharray="2,2"/>
  <line x1="818" y1="184" x2="818" y2="194" stroke="#4DD8C0" stroke-width="1" stroke-dasharray="2,2"/>
  <rect x="622" y="194" width="140" height="24" rx="6" fill="#CCFBF1" stroke="#4DD8C0" stroke-width="1.2"/>
  <text x="634" y="210" font-family="Inter, Segoe UI, sans-serif" font-size="11" font-weight="500" fill="#0E6E63">autonomy-spectrum</text>
  <rect x="770" y="194" width="96" height="24" rx="6" fill="#CCFBF1" stroke="#4DD8C0" stroke-width="1.2"/>
  <text x="782" y="210" font-family="Inter, Segoe UI, sans-serif" font-size="11" font-weight="500" fill="#0E6E63">trust-ladder</text>

  <!-- Card 4: Cost Model -->
  <rect x="904" y="100" width="270" height="186" rx="10" fill="#F2D9B8" opacity="0.28"/>
  <rect x="902" y="98" width="270" height="186" rx="10" fill="#FFFFFF" stroke="#E8D0B0" stroke-width="1"/>
  <rect x="902" y="98" width="270" height="36" rx="10" fill="#D99B0B"/>
  <rect x="902" y="118" width="270" height="16" fill="#D99B0B"/>
  <text x="916" y="122" font-family="Inter, Segoe UI, sans-serif" font-size="14" font-weight="bold" fill="#FFFFFF">Cost Model</text>
  <text x="916" y="158" font-family="Inter, Segoe UI, sans-serif" font-size="12" fill="#4B5563">Token cost at 3 scales + path</text>
  <text x="916" y="174" font-family="Inter, Segoe UI, sans-serif" font-size="12" fill="#4B5563">to profitability</text>
  <line x1="980" y1="184" x2="980" y2="194" stroke="#4DD8C0" stroke-width="1" stroke-dasharray="2,2"/>
  <line x1="1105" y1="184" x2="1105" y2="194" stroke="#4DD8C0" stroke-width="1" stroke-dasharray="2,2"/>
  <rect x="916" y="194" width="128" height="24" rx="6" fill="#CCFBF1" stroke="#4DD8C0" stroke-width="1.2"/>
  <text x="928" y="210" font-family="Inter, Segoe UI, sans-serif" font-size="11" font-weight="500" fill="#0E6E63">token-economics</text>
  <rect x="1052" y="194" width="106" height="24" rx="6" fill="#CCFBF1" stroke="#4DD8C0" stroke-width="1.2"/>
  <text x="1064" y="210" font-family="Inter, Segoe UI, sans-serif" font-size="11" font-weight="500" fill="#0E6E63">build-or-buy</text>

  <!-- ========== ROW 2 — honey-amber (cooler) ========== -->

  <!-- Card 5: Ship Decision -->
  <rect x="22" y="312" width="270" height="186" rx="10" fill="#E8D8C4" opacity="0.28"/>
  <rect x="20" y="310" width="270" height="186" rx="10" fill="#FFFFFF" stroke="#D4C4AC" stroke-width="1"/>
  <rect x="20" y="310" width="270" height="36" rx="10" fill="#C88F0A"/>
  <rect x="20" y="330" width="270" height="16" fill="#C88F0A"/>
  <text x="34" y="334" font-family="Inter, Segoe UI, sans-serif" font-size="14" font-weight="bold" fill="#FFFFFF">Ship Decision</text>
  <text x="34" y="370" font-family="Inter, Segoe UI, sans-serif" font-size="12" fill="#4B5563">Eval-gated ship/no-ship with</text>
  <text x="34" y="386" font-family="Inter, Segoe UI, sans-serif" font-size="12" fill="#4B5563">named assumptions</text>
  <line x1="80" y1="396" x2="80" y2="406" stroke="#B4A2F5" stroke-width="1" stroke-dasharray="2,2"/>
  <line x1="194" y1="396" x2="194" y2="406" stroke="#4DD8C0" stroke-width="1" stroke-dasharray="2,2"/>
  <rect x="34" y="406" width="92" height="24" rx="6" fill="#EDE9FE" stroke="#B4A2F5" stroke-width="1.2"/>
  <text x="46" y="422" font-family="Inter, Segoe UI, sans-serif" font-size="11" font-weight="500" fill="#5B21B6">stress-test</text>
  <rect x="134" y="406" width="120" height="24" rx="6" fill="#CCFBF1" stroke="#4DD8C0" stroke-width="1.2"/>
  <text x="146" y="422" font-family="Inter, Segoe UI, sans-serif" font-size="11" font-weight="500" fill="#0E6E63">eval-framework</text>

  <!-- Card 6: Competitive Map -->
  <rect x="316" y="312" width="270" height="186" rx="10" fill="#E8D8C4" opacity="0.28"/>
  <rect x="314" y="310" width="270" height="186" rx="10" fill="#FFFFFF" stroke="#D4C4AC" stroke-width="1"/>
  <rect x="314" y="310" width="270" height="36" rx="10" fill="#B8860B"/>
  <rect x="314" y="330" width="270" height="16" fill="#B8860B"/>
  <text x="328" y="334" font-family="Inter, Segoe UI, sans-serif" font-size="14" font-weight="bold" fill="#FFFFFF">Competitive Map</text>
  <text x="328" y="370" font-family="Inter, Segoe UI, sans-serif" font-size="12" fill="#4B5563">Landscape analysis for AI features,</text>
  <text x="328" y="386" font-family="Inter, Segoe UI, sans-serif" font-size="12" fill="#4B5563">not generic products</text>
  <line x1="385" y1="396" x2="385" y2="406" stroke="#4DD8C0" stroke-width="1" stroke-dasharray="2,2"/>
  <line x1="502" y1="396" x2="502" y2="406" stroke="#4DD8C0" stroke-width="1" stroke-dasharray="2,2"/>
  <rect x="328" y="406" width="114" height="24" rx="6" fill="#CCFBF1" stroke="#4DD8C0" stroke-width="1.2"/>
  <text x="340" y="422" font-family="Inter, Segoe UI, sans-serif" font-size="11" font-weight="500" fill="#0E6E63">signal-scanner</text>
  <rect x="450" y="406" width="104" height="24" rx="6" fill="#CCFBF1" stroke="#4DD8C0" stroke-width="1.2"/>
  <text x="462" y="422" font-family="Inter, Segoe UI, sans-serif" font-size="11" font-weight="500" fill="#0E6E63">moat-finder</text>

  <!-- Card 7: Fit Signal -->
  <rect x="610" y="312" width="270" height="186" rx="10" fill="#E8D8C4" opacity="0.28"/>
  <rect x="608" y="310" width="270" height="186" rx="10" fill="#FFFFFF" stroke="#D4C4AC" stroke-width="1"/>
  <rect x="608" y="310" width="270" height="36" rx="10" fill="#A67C00"/>
  <rect x="608" y="330" width="270" height="16" fill="#A67C00"/>
  <text x="622" y="334" font-family="Inter, Segoe UI, sans-serif" font-size="14" font-weight="bold" fill="#FFFFFF">Fit Signal</text>
  <text x="622" y="370" font-family="Inter, Segoe UI, sans-serif" font-size="12" fill="#4B5563">Product-market fit diagnosis for</text>
  <text x="622" y="386" font-family="Inter, Segoe UI, sans-serif" font-size="12" fill="#4B5563">probabilistic products</text>
  <line x1="667" y1="396" x2="667" y2="406" stroke="#4DD8C0" stroke-width="1" stroke-dasharray="2,2"/>
  <line x1="780" y1="396" x2="780" y2="406" stroke="#4DD8C0" stroke-width="1" stroke-dasharray="2,2"/>
  <rect x="622" y="406" width="90" height="24" rx="6" fill="#CCFBF1" stroke="#4DD8C0" stroke-width="1.2"/>
  <text x="634" y="422" font-family="Inter, Segoe UI, sans-serif" font-size="11" font-weight="500" fill="#0E6E63">AI-metrics</text>
  <rect x="720" y="406" width="120" height="24" rx="6" fill="#CCFBF1" stroke="#4DD8C0" stroke-width="1.2"/>
  <text x="732" y="422" font-family="Inter, Segoe UI, sans-serif" font-size="11" font-weight="500" fill="#0E6E63">adoption-launch</text>

  <!-- Card 8: Prompt as Product -->
  <rect x="904" y="312" width="270" height="186" rx="10" fill="#E8D8C4" opacity="0.28"/>
  <rect x="902" y="310" width="270" height="186" rx="10" fill="#FFFFFF" stroke="#D4C4AC" stroke-width="1"/>
  <rect x="902" y="310" width="270" height="36" rx="10" fill="#C88F0A"/>
  <rect x="902" y="330" width="270" height="16" fill="#C88F0A"/>
  <text x="916" y="334" font-family="Inter, Segoe UI, sans-serif" font-size="14" font-weight="bold" fill="#FFFFFF">Prompt as Product</text>
  <text x="916" y="370" font-family="Inter, Segoe UI, sans-serif" font-size="12" fill="#4B5563">Prompt versioning with regression</text>
  <text x="916" y="386" font-family="Inter, Segoe UI, sans-serif" font-size="12" fill="#4B5563">testing</text>
  <line x1="978" y1="396" x2="978" y2="406" stroke="#B4A2F5" stroke-width="1" stroke-dasharray="2,2"/>
  <line x1="1108" y1="396" x2="1108" y2="406" stroke="#4DD8C0" stroke-width="1" stroke-dasharray="2,2"/>
  <rect x="916" y="406" width="124" height="24" rx="6" fill="#EDE9FE" stroke="#B4A2F5" stroke-width="1.2"/>
  <text x="928" y="422" font-family="Inter, Segoe UI, sans-serif" font-size="11" font-weight="500" fill="#5B21B6">first-principles</text>
  <rect x="1048" y="406" width="120" height="24" rx="6" fill="#CCFBF1" stroke="#4DD8C0" stroke-width="1.2"/>
  <text x="1060" y="422" font-family="Inter, Segoe UI, sans-serif" font-size="11" font-weight="500" fill="#0E6E63">eval-framework</text>

  <!-- Callout — pull-quote with left accent bar -->
  <rect x="42" y="522" width="1116" height="54" rx="10" fill="#FDF6E3" opacity="0.4"/>
  <rect x="40" y="520" width="1116" height="54" rx="10" fill="#FFFDF5" stroke="#E8D5B8" stroke-width="1"/>
  <rect x="40" y="520" width="5" height="54" rx="2" fill="#D97706"/>
  <text x="64" y="552" font-family="Inter, Segoe UI, sans-serif" font-size="14" font-weight="500" fill="#92400E" font-style="italic">The best review is one that happened before the first draft was written.</text>

  <!-- Footer — separator ABOVE text (fixed ordering) -->
  <line x1="200" y1="564" x2="1000" y2="564" stroke="#E5E7EB" stroke-width="1"/>
  <text x="600" y="582" font-family="Inter, Segoe UI, sans-serif" font-size="11" fill="#9CA3AF" text-anchor="middle" letter-spacing="0.5">LAYER 3  ·  CRAFT  ·  8 GENERATORS  ·  APRIL 2026</text>
</svg>