<svg xmlns="http://www.w3.org/2000/svg" viewBox="0 0 1200 700" width="1200" height="700">
  <!-- Background -->
  <rect x="0" y="0" width="1200" height="700" fill="#FAFAF8"/>

  <!-- Header band -->
  <rect x="0" y="0" width="1200" height="76" rx="0" fill="#E8FAF6"/>
  <rect x="0" y="74" width="1200" height="2" fill="#A7DED4" opacity="0.5"/>
  <text x="40" y="40" font-family="Inter, Segoe UI, sans-serif" font-size="26" font-weight="bold" fill="#134E48">36 Calls That Separate Who's Been in the Room</text>
  <text x="40" y="62" font-family="Inter, Segoe UI, sans-serif" font-size="13" fill="#4B5563" letter-spacing="0.5">LAYER 2  ·  JUDGMENT  ·  5 DOMAINS</text>

  <!-- ========== TOP ROW: 2 containers ========== -->

  <!-- 1. PRODUCT SENSE -->
  <rect x="22" y="98" width="564" height="222" rx="12" fill="#D4EDEA" opacity="0.3"/>
  <rect x="20" y="96" width="564" height="222" rx="12" fill="#FFFFFF" stroke="#2DD4BF" stroke-width="1.5"/>
  <!-- Label chip — 30px tall -->
  <rect x="36" y="110" width="158" height="30" rx="15" fill="#0F9B8E"/>
  <text x="66" y="130" font-family="Inter, Segoe UI, sans-serif" font-size="11" font-weight="bold" fill="#FFFFFF" letter-spacing="1">PRODUCT SENSE</text>
  <text x="206" y="130" font-family="Inter, Segoe UI, sans-serif" font-size="12" font-weight="600" fill="#0F766E">9 skills</text>
  <!-- Skill chips — 4px extra top padding after label row -->
  <rect x="36" y="154" width="120" height="28" rx="7" fill="#CCFBF1" stroke="#5EEAD4" stroke-width="1"/>
  <text x="50" y="172" font-family="Inter, Segoe UI, sans-serif" font-size="11" fill="#0F766E">problem-AI-fit</text>
  <rect x="166" y="154" width="142" height="28" rx="7" fill="#CCFBF1" stroke="#5EEAD4" stroke-width="1"/>
  <text x="180" y="172" font-family="Inter, Segoe UI, sans-serif" font-size="11" fill="#0F766E">use-case-readiness</text>
  <rect x="318" y="154" width="126" height="28" rx="7" fill="#CCFBF1" stroke="#5EEAD4" stroke-width="1"/>
  <text x="332" y="172" font-family="Inter, Segoe UI, sans-serif" font-size="11" fill="#0F766E">AI-UX-patterns</text>
  <!-- One-liner with left accent line -->
  <rect x="36" y="200" width="2" height="32" rx="1" fill="#0F9B8E"/>
  <text x="48" y="214" font-family="Inter, Segoe UI, sans-serif" font-size="14" font-weight="500" fill="#1F2937" font-style="italic">Is AI the right solution, or are you building</text>
  <text x="48" y="230" font-family="Inter, Segoe UI, sans-serif" font-size="14" font-weight="500" fill="#1F2937" font-style="italic">because it's exciting?</text>
  <!-- Separator line before additional skills -->
  <line x1="36" y1="246" x2="564" y2="246" stroke="#E5E7EB" stroke-width="1"/>
  <!-- Additional skills -->
  <text x="36" y="264" font-family="Inter, Segoe UI, sans-serif" font-size="11" fill="#9CA3AF">+ failure-modes, feedback-flywheel, invisible-stack, needs-guard,</text>
  <text x="36" y="280" font-family="Inter, Segoe UI, sans-serif" font-size="11" fill="#9CA3AF">uncertainty-research, ai-product-taste</text>

  <!-- 2. AI STRATEGY -->
  <rect x="610" y="98" width="564" height="222" rx="12" fill="#DDD6F5" opacity="0.3"/>
  <rect x="608" y="96" width="564" height="222" rx="12" fill="#FFFFFF" stroke="#A78BFA" stroke-width="1.5"/>
  <rect x="624" y="110" width="136" height="30" rx="15" fill="#7C3AED"/>
  <text x="652" y="130" font-family="Inter, Segoe UI, sans-serif" font-size="11" font-weight="bold" fill="#FFFFFF" letter-spacing="1">AI STRATEGY</text>
  <text x="772" y="130" font-family="Inter, Segoe UI, sans-serif" font-size="12" font-weight="600" fill="#6D28D9">10 skills</text>
  <!-- Skill chips -->
  <rect x="624" y="154" width="108" height="28" rx="7" fill="#EDE9FE" stroke="#C4B5FD" stroke-width="1"/>
  <text x="638" y="172" font-family="Inter, Segoe UI, sans-serif" font-size="11" fill="#6D28D9">build-or-buy</text>
  <rect x="742" y="154" width="136" height="28" rx="7" fill="#EDE9FE" stroke="#C4B5FD" stroke-width="1"/>
  <text x="756" y="172" font-family="Inter, Segoe UI, sans-serif" font-size="11" fill="#6D28D9">token-economics</text>
  <rect x="888" y="154" width="110" height="28" rx="7" fill="#EDE9FE" stroke="#C4B5FD" stroke-width="1"/>
  <text x="902" y="172" font-family="Inter, Segoe UI, sans-serif" font-size="11" fill="#6D28D9">moat-finder</text>
  <!-- One-liner with left accent line -->
  <rect x="624" y="200" width="2" height="32" rx="1" fill="#7C3AED"/>
  <text x="636" y="214" font-family="Inter, Segoe UI, sans-serif" font-size="14" font-weight="500" fill="#1F2937" font-style="italic">Durable bets when capabilities shift</text>
  <text x="636" y="230" font-family="Inter, Segoe UI, sans-serif" font-size="14" font-weight="500" fill="#1F2937" font-style="italic">every quarter</text>
  <!-- Separator -->
  <line x1="624" y1="246" x2="1152" y2="246" stroke="#E5E7EB" stroke-width="1"/>
  <text x="624" y="264" font-family="Inter, Segoe UI, sans-serif" font-size="11" fill="#9CA3AF">+ strategy-canvas, capability-tracking, signal-scanner, purpose-dialogue,</text>
  <text x="624" y="280" font-family="Inter, Segoe UI, sans-serif" font-size="11" fill="#9CA3AF">adoption-launch, trendslop-check, ai-portfolio</text>

  <!-- ========== BOTTOM ROW: 3 containers ========== -->

  <!-- 3. SAFETY &amp; TRUST -->
  <rect x="22" y="344" width="372" height="222" rx="12" fill="#F5D0E3" opacity="0.25"/>
  <rect x="20" y="342" width="372" height="222" rx="12" fill="#FFFFFF" stroke="#F472B6" stroke-width="1.5"/>
  <rect x="36" y="356" width="160" height="30" rx="15" fill="#DB2777"/>
  <text x="58" y="376" font-family="Inter, Segoe UI, sans-serif" font-size="11" font-weight="bold" fill="#FFFFFF" letter-spacing="1">SAFETY &amp; TRUST</text>
  <text x="208" y="376" font-family="Inter, Segoe UI, sans-serif" font-size="12" font-weight="600" fill="#BE185D">7 skills</text>
  <!-- Chips — 4px extra padding -->
  <rect x="36" y="400" width="128" height="28" rx="7" fill="#FCE7F3" stroke="#F9A8D4" stroke-width="1"/>
  <text x="50" y="418" font-family="Inter, Segoe UI, sans-serif" font-size="11" fill="#BE185D">safety-by-design</text>
  <rect x="174" y="400" width="102" height="28" rx="7" fill="#FCE7F3" stroke="#F9A8D4" stroke-width="1"/>
  <text x="188" y="418" font-family="Inter, Segoe UI, sans-serif" font-size="11" fill="#BE185D">trust-ladder</text>
  <rect x="286" y="400" width="90" height="28" rx="7" fill="#FCE7F3" stroke="#F9A8D4" stroke-width="1"/>
  <text x="296" y="418" font-family="Inter, Segoe UI, sans-serif" font-size="11" fill="#BE185D">breach-ready</text>
  <!-- One-liner with left accent line -->
  <rect x="36" y="446" width="2" height="18" rx="1" fill="#DB2777"/>
  <text x="48" y="460" font-family="Inter, Segoe UI, sans-serif" font-size="14" font-weight="500" fill="#1F2937" font-style="italic">Safety earns you the right to ship fast</text>
  <!-- Separator -->
  <line x1="36" y1="478" x2="372" y2="478" stroke="#E5E7EB" stroke-width="1"/>
  <text x="36" y="496" font-family="Inter, Segoe UI, sans-serif" font-size="11" fill="#9CA3AF">+ safety-as-moat, responsible-ai, agent-risk,</text>
  <text x="36" y="512" font-family="Inter, Segoe UI, sans-serif" font-size="11" fill="#9CA3AF">trust-under-fog</text>

  <!-- 4. AGENT DESIGN -->
  <rect x="418" y="344" width="372" height="222" rx="12" fill="#C4ECF3" opacity="0.25"/>
  <rect x="416" y="342" width="372" height="222" rx="12" fill="#FFFFFF" stroke="#22D3EE" stroke-width="1.5"/>
  <rect x="432" y="356" width="148" height="30" rx="15" fill="#0891B2"/>
  <text x="456" y="376" font-family="Inter, Segoe UI, sans-serif" font-size="11" font-weight="bold" fill="#FFFFFF" letter-spacing="1">AGENT DESIGN</text>
  <text x="592" y="376" font-family="Inter, Segoe UI, sans-serif" font-size="12" font-weight="600" fill="#0E7490">5 skills</text>
  <!-- Chips -->
  <rect x="432" y="400" width="144" height="28" rx="7" fill="#CFFAFE" stroke="#67E8F9" stroke-width="1"/>
  <text x="446" y="418" font-family="Inter, Segoe UI, sans-serif" font-size="11" fill="#0E7490">autonomy-spectrum</text>
  <rect x="586" y="400" width="134" height="28" rx="7" fill="#CFFAFE" stroke="#67E8F9" stroke-width="1"/>
  <text x="600" y="418" font-family="Inter, Segoe UI, sans-serif" font-size="11" fill="#0E7490">agent-ecosystem</text>
  <!-- Second row chip -->
  <rect x="432" y="436" width="130" height="28" rx="7" fill="#CFFAFE" stroke="#67E8F9" stroke-width="1"/>
  <text x="446" y="454" font-family="Inter, Segoe UI, sans-serif" font-size="11" fill="#0E7490">tool-architecture</text>
  <!-- One-liner with left accent line -->
  <rect x="432" y="478" width="2" height="18" rx="1" fill="#0891B2"/>
  <text x="444" y="492" font-family="Inter, Segoe UI, sans-serif" font-size="14" font-weight="500" fill="#1F2937" font-style="italic">When should AI act, not just answer?</text>
  <!-- Separator -->
  <line x1="432" y1="510" x2="768" y2="510" stroke="#E5E7EB" stroke-width="1"/>
  <text x="432" y="528" font-family="Inter, Segoe UI, sans-serif" font-size="11" fill="#9CA3AF">+ agent-harness, multi-modal-product-design</text>

  <!-- 5. EVAL &amp; QUALITY -->
  <rect x="816" y="344" width="372" height="222" rx="12" fill="#F0DFC4" opacity="0.25"/>
  <rect x="814" y="342" width="372" height="222" rx="12" fill="#FFFFFF" stroke="#FBBF24" stroke-width="1.5"/>
  <rect x="830" y="356" width="154" height="30" rx="15" fill="#D97706"/>
  <text x="854" y="376" font-family="Inter, Segoe UI, sans-serif" font-size="11" font-weight="bold" fill="#FFFFFF" letter-spacing="1">EVAL &amp; QUALITY</text>
  <text x="996" y="376" font-family="Inter, Segoe UI, sans-serif" font-size="12" font-weight="600" fill="#92400E">6 skills</text>
  <!-- Chips -->
  <rect x="830" y="400" width="122" height="28" rx="7" fill="#FEF3C7" stroke="#FCD34D" stroke-width="1"/>
  <text x="844" y="418" font-family="Inter, Segoe UI, sans-serif" font-size="11" fill="#92400E">eval-framework</text>
  <rect x="962" y="400" width="100" height="28" rx="7" fill="#FEF3C7" stroke="#FCD34D" stroke-width="1"/>
  <text x="976" y="418" font-family="Inter, Segoe UI, sans-serif" font-size="11" fill="#92400E">AI-metrics</text>
  <!-- Second row -->
  <rect x="830" y="436" width="180" height="28" rx="7" fill="#FEF3C7" stroke="#FCD34D" stroke-width="1"/>
  <text x="844" y="454" font-family="Inter, Segoe UI, sans-serif" font-size="11" fill="#92400E">production-observability</text>
  <!-- One-liner with left accent line -->
  <rect x="830" y="478" width="2" height="32" rx="1" fill="#D97706"/>
  <text x="842" y="492" font-family="Inter, Segoe UI, sans-serif" font-size="14" font-weight="500" fill="#1F2937" font-style="italic">If you can't measure it, you don't</text>
  <text x="842" y="508" font-family="Inter, Segoe UI, sans-serif" font-size="14" font-weight="500" fill="#1F2937" font-style="italic">know if it works</text>
  <!-- Separator -->
  <line x1="830" y1="524" x2="1166" y2="524" stroke="#E5E7EB" stroke-width="1"/>
  <text x="830" y="542" font-family="Inter, Segoe UI, sans-serif" font-size="11" fill="#9CA3AF">+ confidence-tuner, eval-driven-dev, gen-ai-experimentation</text>

  <!-- Callout — pull-quote with left accent bar, split bold/light -->
  <rect x="42" y="590" width="1116" height="54" rx="10" fill="#E8FAF6" opacity="0.4"/>
  <rect x="40" y="588" width="1116" height="54" rx="10" fill="#F7FDFB" stroke="#B5E8DF" stroke-width="1"/>
  <rect x="40" y="588" width="5" height="54" rx="2" fill="#0F9B8E"/>
  <text x="64" y="612" font-family="Inter, Segoe UI, sans-serif" font-size="14" font-weight="700" fill="#134E48">A framework that doesn't know its own limits</text>
  <text x="460" y="612" font-family="Inter, Segoe UI, sans-serif" font-size="14" font-weight="400" fill="#0F766E" font-style="italic"> is more dangerous than having no framework at all.</text>

  <!-- Footer with subtle separator -->
  <line x1="200" y1="662" x2="1000" y2="662" stroke="#E5E7EB" stroke-width="1"/>
  <text x="600" y="686" font-family="Inter, Segoe UI, sans-serif" font-size="11" fill="#9CA3AF" text-anchor="middle" letter-spacing="0.5">LAYER 2  ·  JUDGMENT  ·  36 SKILLS  ·  5 DOMAINS  ·  APRIL 2026</text>
</svg>