<svg viewBox="0 0 1200 530" width="1200" height="530" xmlns="http://www.w3.org/2000/svg">
  <!-- Background -->
  <rect x="0" y="0" width="1200" height="530" rx="0" fill="#FAFAF8"/>

  <!-- Header band — warm neutral -->
  <rect x="0" y="0" width="1200" height="72" fill="#F7F5F0"/>
  <rect x="0" y="70" width="1200" height="2" fill="#E8E4DD" opacity="0.6"/>

  <!-- Title -->
  <text x="600" y="36" text-anchor="middle" font-family="Inter, Segoe UI, sans-serif" font-size="28" font-weight="800" fill="#1B1B1F">Not a Toolkit. A Personal Operating System.</text>
  <text x="600" y="56" text-anchor="middle" font-family="Inter, Segoe UI, sans-serif" font-size="14" font-weight="500" fill="#4B5563">One Brain, One Quality Bar, Every Domain</text>

  <!-- ==================== ORCHESTRATOR HUB ==================== -->
  <!-- Glow layer -->
  <rect x="490" y="78" width="220" height="38" rx="19" fill="#EDE9FE" opacity="0.5"/>
  <!-- Badge -->
  <rect x="498" y="82" width="204" height="30" rx="15" fill="#F5F3FF" stroke="#8B5CF6" stroke-width="2"/>
  <text x="600" y="102" text-anchor="middle" font-family="Inter, Segoe UI, sans-serif" font-size="13" font-weight="700" fill="#7C3AED" letter-spacing="0.8">THE ORCHESTRATOR</text>

  <!-- ==================== CONNECTION LINES — unified purple, not rainbow ==================== -->
  <!-- Row 1 connections — all use a subtle purple-gray -->
  <path d="M 535,112 C 430,122 300,132 198,147" stroke="#C4B8D8" stroke-width="2" fill="none" stroke-linecap="round"/>
  <path d="M 600,112 C 602,124 598,136 600,147" stroke="#C4B8D8" stroke-width="2" fill="none" stroke-linecap="round"/>
  <path d="M 665,112 C 770,122 900,132 1002,147" stroke="#C4B8D8" stroke-width="2" fill="none" stroke-linecap="round"/>

  <!-- Row 2 connections -->
  <path d="M 535,112 C 420,168 280,262 198,325" stroke="#C4B8D8" stroke-width="1.5" fill="none" stroke-linecap="round" opacity="0.7"/>
  <path d="M 600,112 C 604,188 596,268 600,325" stroke="#C4B8D8" stroke-width="1.5" fill="none" stroke-linecap="round" opacity="0.7"/>
  <path d="M 665,112 C 780,168 920,262 1002,325" stroke="#C4B8D8" stroke-width="1.5" fill="none" stroke-linecap="round" opacity="0.7"/>

  <!-- ==================== ROW 1 (primary — 150px tall) ==================== -->

  <!-- Card 1: AI Product Management (flagship — solid border, strongest shadow) -->
  <rect x="23" y="150" width="350" height="150" rx="12" fill="#C4B5E0" opacity="0.25"/>
  <rect x="20" y="147" width="350" height="150" rx="12" fill="#FFFFFF" stroke="#8B5CF6" stroke-width="1.5"/>
  <!-- Label chip -->
  <rect x="34" y="158" width="52" height="22" rx="11" fill="#F5F3FF"/>
  <text x="60" y="173" text-anchor="middle" font-family="Inter, Segoe UI, sans-serif" font-size="11" font-weight="700" fill="#7C3AED" letter-spacing="0.3">AI PM</text>
  <text x="94" y="173" font-family="Inter, Segoe UI, sans-serif" font-size="15" font-weight="700" fill="#1B1B1F">AI Product Management</text>
  <text x="34" y="200" font-family="Inter, Segoe UI, sans-serif" font-size="13" fill="#374151">54 skills across 6 expert teams.</text>
  <text x="34" y="218" font-family="Inter, Segoe UI, sans-serif" font-size="13" fill="#374151">PRDs, strategy, evals, safety</text>
  <text x="34" y="236" font-family="Inter, Segoe UI, sans-serif" font-size="13" fill="#374151">-- all pre-tested.</text>
  <!-- Stat badges — flagship feature -->
  <rect x="34" y="254" width="76" height="22" rx="6" fill="#F5F3FF"/>
  <text x="72" y="269" text-anchor="middle" font-family="Inter, Segoe UI, sans-serif" font-size="11" font-weight="600" fill="#7C3AED">54 skills</text>
  <rect x="118" y="254" width="72" height="22" rx="6" fill="#F5F3FF"/>
  <text x="154" y="269" text-anchor="middle" font-family="Inter, Segoe UI, sans-serif" font-size="11" font-weight="600" fill="#7C3AED">6 teams</text>
  <rect x="198" y="254" width="80" height="22" rx="6" fill="#F5F3FF"/>
  <text x="238" y="269" text-anchor="middle" font-family="Inter, Segoe UI, sans-serif" font-size="11" font-weight="600" fill="#7C3AED">3 layers</text>

  <!-- Card 2: Writing & Email -->
  <rect x="428" y="150" width="350" height="150" rx="12" fill="#A7D8CF" opacity="0.2"/>
  <rect x="425" y="147" width="350" height="150" rx="12" fill="#FFFFFF" stroke="#14B8A6" stroke-width="1.5"/>
  <rect x="439" y="158" width="72" height="22" rx="11" fill="#F0FDFA"/>
  <text x="475" y="173" text-anchor="middle" font-family="Inter, Segoe UI, sans-serif" font-size="11" font-weight="700" fill="#0D9488" letter-spacing="0.3">WRITING</text>
  <text x="519" y="173" font-family="Inter, Segoe UI, sans-serif" font-size="15" font-weight="700" fill="#1B1B1F">Writing &amp; Email</text>
  <text x="439" y="200" font-family="Inter, Segoe UI, sans-serif" font-size="13" fill="#374151">Email mastery with voice calibration.</text>
  <text x="439" y="218" font-family="Inter, Segoe UI, sans-serif" font-size="13" fill="#374151">Thought leadership with the 10</text>
  <text x="439" y="236" font-family="Inter, Segoe UI, sans-serif" font-size="13" fill="#374151">thinking algorithms baked in.</text>
  <text x="439" y="268" font-family="Inter, Segoe UI, sans-serif" font-size="11" fill="#9CA3AF">Voice + humanizer + 24 anti-patterns</text>

  <!-- Card 3: Research & Synthesis -->
  <rect x="833" y="150" width="350" height="150" rx="12" fill="#A5D8E6" opacity="0.2"/>
  <rect x="830" y="147" width="350" height="150" rx="12" fill="#FFFFFF" stroke="#06B6D4" stroke-width="1.5"/>
  <rect x="844" y="158" width="82" height="22" rx="11" fill="#ECFEFF"/>
  <text x="885" y="173" text-anchor="middle" font-family="Inter, Segoe UI, sans-serif" font-size="11" font-weight="700" fill="#0891B2" letter-spacing="0.3">RESEARCH</text>
  <text x="934" y="173" font-family="Inter, Segoe UI, sans-serif" font-size="15" font-weight="700" fill="#1B1B1F">Research &amp; Synthesis</text>
  <text x="844" y="200" font-family="Inter, Segoe UI, sans-serif" font-size="13" fill="#374151">Grok + Perplexity signal collection.</text>
  <text x="844" y="218" font-family="Inter, Segoe UI, sans-serif" font-size="13" fill="#374151">HBR pipeline. 298 podcast</text>
  <text x="844" y="236" font-family="Inter, Segoe UI, sans-serif" font-size="13" fill="#374151">transcripts indexed.</text>
  <text x="844" y="268" font-family="Inter, Segoe UI, sans-serif" font-size="11" fill="#9CA3AF">31 HBR articles + AI reports</text>

  <!-- ==================== ROW 2 (secondary — 140px tall) ==================== -->

  <!-- Card 4: Presentations & Visual -->
  <rect x="23" y="328" width="350" height="140" rx="12" fill="#F5D08C" opacity="0.2"/>
  <rect x="20" y="325" width="350" height="140" rx="12" fill="#FFFFFF" stroke="#F59E0B" stroke-width="1.2"/>
  <rect x="34" y="336" width="62" height="22" rx="11" fill="#FFFBEB"/>
  <text x="65" y="351" text-anchor="middle" font-family="Inter, Segoe UI, sans-serif" font-size="11" font-weight="700" fill="#D97706" letter-spacing="0.3">VISUAL</text>
  <text x="104" y="351" font-family="Inter, Segoe UI, sans-serif" font-size="15" font-weight="700" fill="#1B1B1F">Presentations &amp; Visual</text>
  <text x="34" y="378" font-family="Inter, Segoe UI, sans-serif" font-size="13" fill="#374151">Zero-dependency HTML presentations.</text>
  <text x="34" y="396" font-family="Inter, Segoe UI, sans-serif" font-size="13" fill="#374151">Hand-drawn SVG diagrams.</text>
  <text x="34" y="414" font-family="Inter, Segoe UI, sans-serif" font-size="13" fill="#374151">Apple-level design system.</text>
  <text x="34" y="444" font-family="Inter, Segoe UI, sans-serif" font-size="11" fill="#9CA3AF">3 skills + brand system</text>

  <!-- Card 5: Interview & Career -->
  <rect x="428" y="328" width="350" height="140" rx="12" fill="#F0B4D0" opacity="0.2"/>
  <rect x="425" y="325" width="350" height="140" rx="12" fill="#FFFFFF" stroke="#EC4899" stroke-width="1.2"/>
  <rect x="439" y="336" width="68" height="22" rx="11" fill="#FDF2F8"/>
  <text x="473" y="351" text-anchor="middle" font-family="Inter, Segoe UI, sans-serif" font-size="11" font-weight="700" fill="#DB2777" letter-spacing="0.3">CAREER</text>
  <text x="515" y="351" font-family="Inter, Segoe UI, sans-serif" font-size="15" font-weight="700" fill="#1B1B1F">Interview &amp; Career</text>
  <text x="439" y="378" font-family="Inter, Segoe UI, sans-serif" font-size="13" fill="#374151">AI PM interview prep grounded in</text>
  <text x="439" y="396" font-family="Inter, Segoe UI, sans-serif" font-size="13" fill="#374151">real frameworks. Company research.</text>
  <text x="439" y="414" font-family="Inter, Segoe UI, sans-serif" font-size="13" fill="#374151">War book of key questions.</text>
  <text x="439" y="444" font-family="Inter, Segoe UI, sans-serif" font-size="11" fill="#9CA3AF">War book + frameworks</text>

  <!-- Card 6: Course Building -->
  <rect x="833" y="328" width="350" height="140" rx="12" fill="#A7D8B4" opacity="0.2"/>
  <rect x="830" y="325" width="350" height="140" rx="12" fill="#FFFFFF" stroke="#16A34A" stroke-width="1.2"/>
  <rect x="844" y="336" width="80" height="22" rx="11" fill="#F0FDF4"/>
  <text x="884" y="351" text-anchor="middle" font-family="Inter, Segoe UI, sans-serif" font-size="11" font-weight="700" fill="#15803D" letter-spacing="0.3">TEACHING</text>
  <text x="932" y="351" font-family="Inter, Segoe UI, sans-serif" font-size="15" font-weight="700" fill="#1B1B1F">Course Building</text>
  <text x="844" y="378" font-family="Inter, Segoe UI, sans-serif" font-size="13" fill="#374151">17-module AI PM curriculum using</text>
  <text x="844" y="396" font-family="Inter, Segoe UI, sans-serif" font-size="13" fill="#374151">the CONTEXT framework. From</text>
  <text x="844" y="414" font-family="Inter, Segoe UI, sans-serif" font-size="13" fill="#374151">foundations to leadership.</text>
  <text x="844" y="444" font-family="Inter, Segoe UI, sans-serif" font-size="11" fill="#9CA3AF">17 modules + CONTEXT framework</text>

  <!-- ==================== PUNCHLINE CALLOUT ==================== -->
  <rect x="120" y="482" width="960" height="18" rx="4" fill="#FAF8FF"/>
  <rect x="120" y="482" width="4" height="18" rx="2" fill="#7C3AED"/>
  <text x="600" y="496" text-anchor="middle" font-family="Inter, Segoe UI, sans-serif" font-size="14" fill="#1B1B1F">
    <tspan font-weight="700">Most people use AI to do things faster.</tspan>
    <tspan dx="8" font-weight="400" fill="#6B7280">A few use it to think things they couldn't think before.</tspan>
  </text>

  <!-- Footer -->
  <text x="600" y="522" text-anchor="middle" font-family="Inter, Segoe UI, sans-serif" font-size="11" fill="#9CA3AF">rtp-personal-skills  ·  The Personal OS  ·  April 2026</text>
</svg>
