<svg viewBox="0 0 1200 520" width="1200" height="520" xmlns="http://www.w3.org/2000/svg">
  <!-- Background -->
  <rect x="0" y="0" width="1200" height="520" rx="0" fill="#FAFAF8"/>

  <!-- Header band -->
  <rect x="0" y="0" width="1200" height="70" fill="#F9FAFB"/>
  <line x1="0" y1="70" x2="1200" y2="70" stroke="#E5E7EB" stroke-width="1"/>

  <!-- Title -->
  <text x="600" y="36" text-anchor="middle" font-family="Inter, Segoe UI, sans-serif" font-size="28" font-weight="800" fill="#1B1B1F">Not a Toolkit. A Personal Operating System.</text>
  <text x="600" y="58" text-anchor="middle" font-family="Inter, Segoe UI, sans-serif" font-size="14" fill="#374151">Quick Check  ·  One Brain, One Quality Bar, Every Domain</text>

  <!-- Orchestrator badge -->
  <rect x="516" y="80" width="168" height="28" rx="14" fill="#F5F3FF" stroke="#8B5CF6" stroke-width="1.5"/>
  <text x="600" y="99" text-anchor="middle" font-family="Inter, Segoe UI, sans-serif" font-size="12" font-weight="700" fill="#8B5CF6">THE ORCHESTRATOR</text>

  <!-- Connection lines to row 1 (hand-drawn curves) -->
  <path d="M 540,108 C 440,114 300,124 195,135" stroke="#B0B8C4" stroke-width="2" fill="none" stroke-linecap="round"/>
  <path d="M 600,108 C 603,118 597,126 600,135" stroke="#B0B8C4" stroke-width="2" fill="none" stroke-linecap="round"/>
  <path d="M 660,108 C 760,114 900,124 1005,135" stroke="#B0B8C4" stroke-width="2" fill="none" stroke-linecap="round"/>

  <!-- Connection lines to row 2 (hand-drawn curves) -->
  <path d="M 540,108 C 440,160 280,250 195,315" stroke="#B0B8C4" stroke-width="2" fill="none" stroke-linecap="round"/>
  <path d="M 600,108 C 603,180 597,260 600,315" stroke="#B0B8C4" stroke-width="2" fill="none" stroke-linecap="round"/>
  <path d="M 660,108 C 760,160 920,250 1005,315" stroke="#B0B8C4" stroke-width="2" fill="none" stroke-linecap="round"/>

  <!-- ==================== ROW 1 ==================== -->

  <!-- Card 1: AI Product Management -->
  <!-- Shadow rect -->
  <rect x="23" y="138" width="350" height="140" rx="10" fill="#E9E5F5" opacity="0.5"/>
  <!-- Main rect -->
  <rect x="20" y="135" width="350" height="140" rx="10" fill="#FFFFFF" stroke="#8B5CF6" stroke-width="1.5" stroke-dasharray="6 3"/>
  <!-- Label chip -->
  <rect x="34" y="145" width="48" height="20" rx="10" fill="#F5F3FF"/>
  <text x="58" y="159" text-anchor="middle" font-family="Inter, Segoe UI, sans-serif" font-size="11" font-weight="700" fill="#8B5CF6">AI PM</text>
  <!-- Card title -->
  <text x="90" y="159" font-family="Inter, Segoe UI, sans-serif" font-size="15" font-weight="700" fill="#1B1B1F">AI Product Management</text>
  <!-- Card body -->
  <text x="34" y="185" font-family="Inter, Segoe UI, sans-serif" font-size="13" fill="#374151">54 skills across 6 expert teams.</text>
  <text x="34" y="203" font-family="Inter, Segoe UI, sans-serif" font-size="13" fill="#374151">PRDs, strategy, evals, safety</text>
  <text x="34" y="221" font-family="Inter, Segoe UI, sans-serif" font-size="13" fill="#374151">-- all pre-tested.</text>

  <!-- Card 2: Writing & Email -->
  <!-- Shadow rect -->
  <rect x="428" y="138" width="350" height="140" rx="10" fill="#CCFBF1" opacity="0.4"/>
  <!-- Main rect -->
  <rect x="425" y="135" width="350" height="140" rx="10" fill="#FFFFFF" stroke="#14B8A6" stroke-width="1.5"/>
  <!-- Label chip -->
  <rect x="439" y="145" width="68" height="20" rx="10" fill="#F0FDFA"/>
  <text x="473" y="159" text-anchor="middle" font-family="Inter, Segoe UI, sans-serif" font-size="11" font-weight="700" fill="#14B8A6">WRITING</text>
  <!-- Card title -->
  <text x="515" y="159" font-family="Inter, Segoe UI, sans-serif" font-size="15" font-weight="700" fill="#1B1B1F">Writing &amp; Email</text>
  <!-- Card body -->
  <text x="439" y="185" font-family="Inter, Segoe UI, sans-serif" font-size="13" fill="#374151">Email mastery with voice calibration.</text>
  <text x="439" y="203" font-family="Inter, Segoe UI, sans-serif" font-size="13" fill="#374151">Thought leadership with the 10</text>
  <text x="439" y="221" font-family="Inter, Segoe UI, sans-serif" font-size="13" fill="#374151">thinking algorithms baked in.</text>

  <!-- Card 3: Research & Synthesis -->
  <!-- Shadow rect -->
  <rect x="833" y="138" width="350" height="140" rx="10" fill="#CFFAFE" opacity="0.4"/>
  <!-- Main rect -->
  <rect x="830" y="135" width="350" height="140" rx="10" fill="#FFFFFF" stroke="#06B6D4" stroke-width="1.5"/>
  <!-- Label chip -->
  <rect x="844" y="145" width="78" height="20" rx="10" fill="#ECFEFF"/>
  <text x="883" y="159" text-anchor="middle" font-family="Inter, Segoe UI, sans-serif" font-size="11" font-weight="700" fill="#06B6D4">RESEARCH</text>
  <!-- Card title -->
  <text x="930" y="159" font-family="Inter, Segoe UI, sans-serif" font-size="15" font-weight="700" fill="#1B1B1F">Research &amp; Synthesis</text>
  <!-- Card body -->
  <text x="844" y="185" font-family="Inter, Segoe UI, sans-serif" font-size="13" fill="#374151">Grok + Perplexity signal collection.</text>
  <text x="844" y="203" font-family="Inter, Segoe UI, sans-serif" font-size="13" fill="#374151">HBR pipeline. 298 podcast</text>
  <text x="844" y="221" font-family="Inter, Segoe UI, sans-serif" font-size="13" fill="#374151">transcripts indexed.</text>

  <!-- ==================== ROW 2 ==================== -->

  <!-- Card 4: Presentations & Visual -->
  <!-- Shadow rect -->
  <rect x="23" y="318" width="350" height="140" rx="10" fill="#FEF3C7" opacity="0.4"/>
  <!-- Main rect -->
  <rect x="20" y="315" width="350" height="140" rx="10" fill="#FFFFFF" stroke="#F59E0B" stroke-width="1.5"/>
  <!-- Label chip -->
  <rect x="34" y="325" width="58" height="20" rx="10" fill="#FFFBEB"/>
  <text x="63" y="339" text-anchor="middle" font-family="Inter, Segoe UI, sans-serif" font-size="11" font-weight="700" fill="#F59E0B">VISUAL</text>
  <!-- Card title -->
  <text x="100" y="339" font-family="Inter, Segoe UI, sans-serif" font-size="15" font-weight="700" fill="#1B1B1F">Presentations &amp; Visual</text>
  <!-- Card body -->
  <text x="34" y="365" font-family="Inter, Segoe UI, sans-serif" font-size="13" fill="#374151">Zero-dependency HTML presentations.</text>
  <text x="34" y="383" font-family="Inter, Segoe UI, sans-serif" font-size="13" fill="#374151">Hand-drawn SVG diagrams.</text>
  <text x="34" y="401" font-family="Inter, Segoe UI, sans-serif" font-size="13" fill="#374151">Apple-level design system.</text>

  <!-- Card 5: Interview & Career -->
  <!-- Shadow rect -->
  <rect x="428" y="318" width="350" height="140" rx="10" fill="#FCE7F3" opacity="0.4"/>
  <!-- Main rect -->
  <rect x="425" y="315" width="350" height="140" rx="10" fill="#FFFFFF" stroke="#EC4899" stroke-width="1.5"/>
  <!-- Label chip -->
  <rect x="439" y="325" width="64" height="20" rx="10" fill="#FDF2F8"/>
  <text x="471" y="339" text-anchor="middle" font-family="Inter, Segoe UI, sans-serif" font-size="11" font-weight="700" fill="#EC4899">CAREER</text>
  <!-- Card title -->
  <text x="511" y="339" font-family="Inter, Segoe UI, sans-serif" font-size="15" font-weight="700" fill="#1B1B1F">Interview &amp; Career</text>
  <!-- Card body -->
  <text x="439" y="365" font-family="Inter, Segoe UI, sans-serif" font-size="13" fill="#374151">AI PM interview prep grounded in</text>
  <text x="439" y="383" font-family="Inter, Segoe UI, sans-serif" font-size="13" fill="#374151">real frameworks. Company research.</text>
  <text x="439" y="401" font-family="Inter, Segoe UI, sans-serif" font-size="13" fill="#374151">War book of key questions.</text>

  <!-- Card 6: Course Building -->
  <!-- Shadow rect -->
  <rect x="833" y="318" width="350" height="140" rx="10" fill="#DCFCE7" opacity="0.4"/>
  <!-- Main rect -->
  <rect x="830" y="315" width="350" height="140" rx="10" fill="#FFFFFF" stroke="#16A34A" stroke-width="1.5"/>
  <!-- Label chip -->
  <rect x="844" y="325" width="76" height="20" rx="10" fill="#F0FDF4"/>
  <text x="882" y="339" text-anchor="middle" font-family="Inter, Segoe UI, sans-serif" font-size="11" font-weight="700" fill="#16A34A">TEACHING</text>
  <!-- Card title -->
  <text x="928" y="339" font-family="Inter, Segoe UI, sans-serif" font-size="15" font-weight="700" fill="#1B1B1F">Course Building</text>
  <!-- Card body -->
  <text x="844" y="365" font-family="Inter, Segoe UI, sans-serif" font-size="13" fill="#374151">17-module AI PM curriculum using</text>
  <text x="844" y="383" font-family="Inter, Segoe UI, sans-serif" font-size="13" fill="#374151">the CONTEXT framework. From</text>
  <text x="844" y="401" font-family="Inter, Segoe UI, sans-serif" font-size="13" fill="#374151">foundations to leadership.</text>

  <!-- ==================== PUNCHLINE CALLOUT ==================== -->
  <rect x="103" y="468" width="994" height="28" rx="6" fill="#F9FAFB" stroke="#E5E7EB" stroke-width="1"/>
  <text x="600" y="486" text-anchor="middle" font-family="Inter, Segoe UI, sans-serif" font-size="13" fill="#1B1B1F"><tspan font-weight="700">Most people use AI to do things faster. A few use it to think things they couldn't think before.</tspan></text>

  <!-- Footer -->
  <text x="600" y="512" text-anchor="middle" font-family="Inter, Segoe UI, sans-serif" font-size="11" fill="#6B7280">rtp-personal-skills  ·  The Personal OS  ·  April 2026</text>
</svg>