<svg viewBox="0 0 1200 520" width="1200" height="520" xmlns="http://www.w3.org/2000/svg">

  <!-- Background -->
  <rect x="0" y="0" width="1200" height="520" rx="0" fill="#FAFAF8"/>

  <!-- Header band -->
  <rect x="0" y="0" width="1200" height="64" fill="#F0FDFA"/>
  <text x="600" y="32" text-anchor="middle" font-family="Inter, Segoe UI, sans-serif" font-size="28" font-weight="800" fill="#0F766E">Why the Output Was Trustworthy</text>
  <text x="600" y="52" text-anchor="middle" font-family="Inter, Segoe UI, sans-serif" font-size="14" fill="#374151">Quick Check  /  Three Layers, Each Earns Its Place</text>

  <!-- ======================== LEFT HALF: LAYER CAKE ======================== -->

  <!-- Layer 1: Thinking — shadow -->
  <rect x="53" y="83" width="500" height="90" rx="8" fill="#D4D4D8" opacity="0.4"/>
  <!-- Layer 1: Thinking — card -->
  <rect x="50" y="80" width="500" height="90" rx="8" fill="#FFFFFF" stroke="#E5E7EB" stroke-width="1"/>
  <!-- Layer 1: header bar -->
  <rect x="50" y="80" width="500" height="30" rx="8" fill="#8B5CF6"/>
  <rect x="50" y="100" width="500" height="10" fill="#8B5CF6"/>
  <text x="70" y="100" font-family="Inter, Segoe UI, sans-serif" font-size="15" font-weight="700" fill="#FFFFFF">Layer 1: Thinking</text>
  <text x="70" y="133" font-family="Inter, Segoe UI, sans-serif" font-size="13" fill="#374151">10 checks run first. Are you solving the right problem?</text>
  <text x="70" y="150" font-family="Inter, Segoe UI, sans-serif" font-size="13" fill="#374151">What would make you wrong?</text>

  <!-- Arrow 1 (organic curve) -->
  <path d="M 300,170 C 303,178 297,186 300,194" stroke="#9CA3AF" stroke-width="2.5" stroke-dasharray="5,4" fill="none" stroke-linecap="round"/>
  <polygon points="294,191 300,202 306,191" fill="#6B7280"/>

  <!-- Layer 2: Judgment — shadow -->
  <rect x="53" y="208" width="500" height="90" rx="8" fill="#D4D4D8" opacity="0.4"/>
  <!-- Layer 2: Judgment — card -->
  <rect x="50" y="205" width="500" height="90" rx="8" fill="#FFFFFF" stroke="#E5E7EB" stroke-width="1"/>
  <!-- Layer 2: header bar -->
  <rect x="50" y="205" width="500" height="30" rx="8" fill="#14B8A6"/>
  <rect x="50" y="225" width="500" height="10" fill="#14B8A6"/>
  <text x="70" y="225" font-family="Inter, Segoe UI, sans-serif" font-size="15" font-weight="700" fill="#FFFFFF">Layer 2: Judgment</text>
  <text x="70" y="258" font-family="Inter, Segoe UI, sans-serif" font-size="13" fill="#374151">36 domain calls. Build or buy? What autonomy level?</text>
  <text x="70" y="275" font-family="Inter, Segoe UI, sans-serif" font-size="13" fill="#374151">Where does it fail dangerously?</text>

  <!-- Arrow 2 (organic curve) -->
  <path d="M 300,295 C 303,303 297,311 300,319" stroke="#9CA3AF" stroke-width="2.5" stroke-dasharray="5,4" fill="none" stroke-linecap="round"/>
  <polygon points="294,316 300,327 306,316" fill="#6B7280"/>

  <!-- Layer 3: Craft — shadow -->
  <rect x="53" y="333" width="500" height="90" rx="8" fill="#D4D4D8" opacity="0.4"/>
  <!-- Layer 3: Craft — card -->
  <rect x="50" y="330" width="500" height="90" rx="8" fill="#FFFFFF" stroke="#E5E7EB" stroke-width="1"/>
  <!-- Layer 3: header bar -->
  <rect x="50" y="330" width="500" height="30" rx="8" fill="#F59E0B"/>
  <rect x="50" y="350" width="500" height="10" fill="#F59E0B"/>
  <text x="70" y="350" font-family="Inter, Segoe UI, sans-serif" font-size="15" font-weight="700" fill="#FFFFFF">Layer 3: Craft</text>
  <text x="70" y="383" font-family="Inter, Segoe UI, sans-serif" font-size="13" fill="#374151">8 generators that won't start until Layers 1 and 2 have run.</text>
  <text x="70" y="400" font-family="Inter, Segoe UI, sans-serif" font-size="13" fill="#374151">Every output pre-tested.</text>

  <!-- ======================== RIGHT HALF: BEFORE / AFTER ======================== -->

  <!-- WITHOUT panel — shadow -->
  <rect x="633" y="83" width="510" height="140" rx="8" fill="#D4D4D8" opacity="0.4"/>
  <!-- WITHOUT panel -->
  <rect x="630" y="80" width="510" height="140" rx="8" fill="#FEF2F2" stroke="#FCA5A5" stroke-width="1.5"/>
  <text x="650" y="108" font-family="Inter, Segoe UI, sans-serif" font-size="15" font-weight="700" fill="#DC2626">Without the layers</text>
  <text x="650" y="136" font-family="Inter, Segoe UI, sans-serif" font-size="13" font-style="italic" fill="#6B7280">"We should leverage AI to enhance developer</text>
  <text x="650" y="155" font-family="Inter, Segoe UI, sans-serif" font-size="13" font-style="italic" fill="#6B7280">productivity. The market opportunity is</text>
  <text x="650" y="174" font-family="Inter, Segoe UI, sans-serif" font-size="13" font-style="italic" fill="#6B7280">significant."</text>
  <!-- X mark -->
  <line x1="1100" y1="96" x2="1116" y2="112" stroke="#DC2626" stroke-width="2.5" stroke-linecap="round"/>
  <line x1="1116" y1="96" x2="1100" y2="112" stroke="#DC2626" stroke-width="2.5" stroke-linecap="round"/>

  <!-- VS divider -->
  <text x="885" y="248" text-anchor="middle" font-family="Inter, Segoe UI, sans-serif" font-size="14" font-weight="700" fill="#6B7280">vs</text>

  <!-- WITH panel — shadow -->
  <rect x="633" y="268" width="510" height="180" rx="8" fill="#D4D4D8" opacity="0.4"/>
  <!-- WITH panel -->
  <rect x="630" y="265" width="510" height="180" rx="8" fill="#F0FDF4" stroke="#86EFAC" stroke-width="1.5"/>
  <text x="650" y="293" font-family="Inter, Segoe UI, sans-serif" font-size="15" font-weight="700" fill="#16A34A">With the layers</text>
  <!-- Checkmark -->
  <polyline points="1100,281 1107,289 1120,274" fill="none" stroke="#16A34A" stroke-width="2.5" stroke-linecap="round" stroke-linejoin="round"/>

  <text x="650" y="320" font-family="Inter, Segoe UI, sans-serif" font-size="13" fill="#1B1B1F">A spec where engineering estimates from acceptance</text>
  <text x="650" y="339" font-family="Inter, Segoe UI, sans-serif" font-size="13" fill="#1B1B1F">criteria, finance models unit economics, QA has</text>
  <text x="650" y="358" font-family="Inter, Segoe UI, sans-serif" font-size="13" fill="#1B1B1F">testable thresholds, and there's a WHEN WRONG</text>
  <text x="650" y="377" font-family="Inter, Segoe UI, sans-serif" font-size="13" fill="#1B1B1F">section naming three assumptions that would</text>
  <text x="650" y="396" font-family="Inter, Segoe UI, sans-serif" font-size="13" fill="#1B1B1F">invalidate the plan.</text>

  <!-- ======================== FOOTER ======================== -->
  <text x="600" y="495" text-anchor="middle" font-family="Inter, Segoe UI, sans-serif" font-size="12" fill="#6B7280">rtp-personal-skills  /  Three Layers  /  April 2026</text>

</svg>